HIERARCHY
ROOT Hips
{
  OFFSET 1.44925e-005 102.336 -0.101585
  CHANNELS 6 Xposition Yposition Zposition Zrotation Xrotation Yrotation
  JOINT LeftUpLeg
  {
    OFFSET 8.9458 -8.66707 0.101652
    CHANNELS 3 Zrotation Xrotation Yrotation
    JOINT LeftLeg
    {
      OFFSET 0 -44.4227 1.3727
      CHANNELS 3 Zrotation Xrotation Yrotation
      JOINT LeftFoot
      {
        OFFSET -0.253549 -42.0924 -1.46059
        CHANNELS 3 Zrotation Xrotation Yrotation
        JOINT LeftToes
        {
          OFFSET -0.04 -4.41509 8.4991
          CHANNELS 3 Zrotation Xrotation Yrotation
          End Site
          {
            OFFSET 0.08 -0.047448 9.77979
          }
        }
      }
    }
  }
  JOINT Spine
  {
    OFFSET 0 11.8905 0
    CHANNELS 3 Zrotation Xrotation Yrotation
    JOINT Spine1
    {
      OFFSET 0 25.6574 0.127663
      CHANNELS 3 Zrotation Xrotation Yrotation
      JOINT RightShoulder
      {
        OFFSET -8.99 -0.362252 -0.22
        CHANNELS 3 Zrotation Xrotation Yrotation
        JOINT RightArm
        {
          OFFSET -10.2827 -0.00338 0.322123
          CHANNELS 3 Zrotation Xrotation Yrotation
          JOINT RightForeArm
          {
            OFFSET -26.364 0.099144 -1.42434
            CHANNELS 3 Zrotation Xrotation Yrotation
            JOINT RightHand
            {
              OFFSET -22.0324 0.085362 1.02216
              CHANNELS 3 Zrotation Xrotation Yrotation
              End Site
              {
                OFFSET -13.3284 -0.6 1.50291
              }
            }
          }
        }
      }
      JOINT LeftShoulder1
      {
        OFFSET 8.99 -0.362252 -0.22
        CHANNELS 3 Zrotation Xrotation Yrotation
        JOINT LeftArm
        {
          OFFSET 10.2827 -0.00337999 0.322123
          CHANNELS 3 Zrotation Xrotation Yrotation
          JOINT LeftForeArm
          {
            OFFSET 26.2597 0.099144 -1.42434
            CHANNELS 3 Zrotation Xrotation Yrotation
            JOINT LeftHand
            {
              OFFSET 22.0902 0.085362 1.02216
              CHANNELS 3 Zrotation Xrotation Yrotation
              End Site
              {
                OFFSET 13.419 -0.6 1.50291
              }
            }
          }
        }
      }
      JOINT Head
      {
        OFFSET 0 8.73416 0.011341
        CHANNELS 3 Zrotation Xrotation Yrotation
        End Site
        {
          OFFSET -0.29 12.7742 2.51395
        }
      }
    }
  }
  JOINT RightUpLeg
  {
    OFFSET -8.9458 -8.66707 0.101652
    CHANNELS 3 Zrotation Xrotation Yrotation
    JOINT RightLeg
    {
      OFFSET 0 -44.4227 1.3727
      CHANNELS 3 Zrotation Xrotation Yrotation
      JOINT RightFoot
      {
        OFFSET 0.253549 -42.0924 -1.46059
        CHANNELS 3 Zrotation Xrotation Yrotation
        JOINT RightToes
        {
          OFFSET 0.04 -4.41509 8.4991
          CHANNELS 3 Zrotation Xrotation Yrotation
          End Site
          {
            OFFSET -0.08 -0.137448 9.77979
          }
        }
      }
    }
  }
}
MOTION
Frames:	15
Frame Time:	0.0333333
18.7026 100.814 -1.04648 -7.33496 1.0283 -81.1879 3.29872 8.06391 0.808919 2.37116 17.0302 15.4862 -8.98458 -20.9055 -0.957987 -1.28123e-009 8.75252e-006 -1.47156e-008 4.28898 8.58844 -0.958017 0.226763 4.29926 -0.458233 36.2334 1.77949 0.194723 40.8951 -19.5531 12.9525 8.91427 32.4369 8.17546 -6.17783 9.7909 -3.29031 -44.6856 3.51568 -3.3392 -31.0807 -12.7542 -7.12179 -5.37195 37.0218 -13.4407 5.82328 9.61819 -0.917488 -1.434 -15.4743 -10.9858 1.37799 -4.00375 -2.9227 0.31494 17.4966 -10.7743 3.70762 -11.0767 -0.084512 0.0462048 0.000530888 0.662642 
18.7287 100.875 -0.964099 -7.41435 0.932561 -81.3071 3.21457 8.45218 1.57081 2.37244 16.4189 14.8838 -8.76139 -20.6005 -0.908763 -1.28123e-009 8.75252e-006 -1.47156e-008 4.19893 8.48009 -0.847076 0.0594507 4.4246 -0.332995 36.0973 1.77949 0.194723 41.3754 -20.7555 13.2775 8.90786 33.45 7.71055 -5.96662 9.7983 -3.37482 -44.6941 3.52184 -3.34992 -30.9515 -12.0525 -6.8997 -4.9406 36.0697 -14.1464 5.82328 9.61819 -0.917488 -1.57487 -15.3398 -11.1642 1.30632 -3.7467 -2.81795 0.180421 17.148 -10.7057 3.86028 -10.9044 -0.0844626 0.0462048 0.000530888 0.662642 
18.7803 100.979 -0.795141 -7.46909 0.802808 -81.4929 3.04678 9.03062 2.64404 2.32255 15.3602 14.093 -8.28374 -20.0867 -0.816998 -1.28123e-009 8.75252e-006 -1.47156e-008 4.17124 8.2377 -0.692248 -0.309299 4.56177 -0.129785 36.0542 1.77949 0.194723 41.7886 -21.8349 13.5897 8.9407 33.795 7.34735 -5.67006 9.81477 -3.65618 -44.6674 3.52832 -3.36643 -30.7283 -11.1673 -6.48194 -4.39804 34.7216 -15.0721 5.82328 9.61819 -0.917488 -1.96362 -15.1147 -11.342 1.15467 -3.39542 -2.70845 0.00946604 16.5367 -10.5858 4.07295 -10.5914 -0.0859813 0.0462048 0.000530888 0.662642 
18.8437 101.077 -0.611988 -7.4029 0.756436 -81.6601 2.89697 9.39623 3.33421 2.24302 14.443 13.6511 -7.90301 -19.6654 -0.746343 -1.28123e-009 8.75252e-006 -1.47156e-008 4.26182 7.9435 -0.580422 -0.642477 4.60261 0.0252806 36.1269 1.77949 0.194723 41.7283 -21.5716 13.5455 8.91181 32.9129 7.64218 -5.40284 9.83021 -3.95782 -44.673 3.5343 -3.37723 -30.4096 -11.0667 -6.15982 -4.3674 34.2865 -15.2071 5.82328 9.61819 -0.917488 -2.60148 -15.001 -11.3037 0.988433 -3.18526 -2.71337 -0.0212074 15.9055 -10.4348 4.17471 -10.2508 -0.0933346 0.0462048 0.000530888 0.662642 
18.9123 101.158 -0.462176 -7.28299 0.802353 -81.8807 2.80527 9.55685 3.69191 2.18341 13.8187 13.5401 -7.82759 -19.4063 -0.721299 -1.28123e-009 8.75252e-006 -1.47156e-008 4.36354 7.68863 -0.489624 -0.808654 4.60388 0.126182 36.1479 1.78032 0.194723 41.584 -20.6022 13.3838 8.78855 32.2108 8.18873 -5.11253 9.83294 -3.93024 -44.7022 3.53629 -3.3768 -30.102 -12.3091 -6.0867 -4.99854 35.4129 -14.1968 5.82328 9.61819 -0.917488 -3.34876 -15.0776 -11.0353 0.865872 -3.06986 -2.78762 0.0747626 15.2969 -10.2038 4.16687 -9.90765 -0.103921 0.0462048 0.000530888 0.662642 
18.9798 101.226 -0.346139 -7.22778 0.886407 -82.2659 2.76012 9.75436 4.00509 2.09107 13.3089 13.6284 -7.85785 -19.2084 -0.711572 -1.28123e-009 8.75252e-006 -1.47156e-008 4.42173 7.51474 -0.389124 -0.91814 4.63903 0.23066 36.1238 1.78302 0.194723 41.7982 -20.1467 13.4498 8.68919 32.5997 8.32307 -4.97615 9.82213 -3.57048 -44.6348 3.52678 -3.36825 -29.9663 -14.727 -6.13363 -6.02937 37.7823 -12.3854 5.82328 9.61819 -0.917488 -3.93966 -15.2054 -10.5767 0.825295 -2.91083 -2.80783 0.144072 14.6973 -9.85062 4.15452 -9.55903 -0.114696 0.0462048 0.000530888 0.662642 
19.0318 101.28 -0.252996 -7.25983 0.990085 -82.8086 2.76236 10.0766 4.38445 1.92215 12.8093 13.8403 -7.72951 -19.0227 -0.686289 -1.28123e-009 8.75252e-006 -1.47156e-008 4.43554 7.38144 -0.298736 -1.03218 4.70654 0.330021 36.1585 1.78433 0.194723 42.3527 -20.4251 13.7006 8.7301 33.3543 8.02025 -5.19881 9.8101 -3.32949 -44.4949 3.51249 -3.3611 -29.8791 -17.3856 -6.06305 -7.14945 40.4334 -10.3526 5.82328 9.61819 -0.917488 -4.17832 -15.1771 -9.87341 0.888135 -2.69276 -2.70587 0.101988 14.1496 -9.42475 4.17611 -9.22735 -0.124375 0.0462048 0.000530888 0.662642 
19.0484 101.319 -0.187234 -7.3264 1.13298 -83.4257 2.80951 10.444 4.74686 1.74447 12.361 14.151 -7.50903 -18.8822 -0.654986 -1.28123e-009 8.75252e-006 -1.47156e-008 4.35212 7.19852 -0.23475 -1.00598 4.81868 0.366749 36.2152 1.78503 0.194723 42.9745 -20.7802 13.857 8.7927 33.5433 7.78746 -5.46194 9.81218 -3.50725 -44.4633 3.50945 -3.35913 -29.5619 -19.4347 -5.78638 -8.25745 42.5975 -8.43215 5.82328 9.61819 -0.917488 -4.06168 -14.8997 -8.85294 1.04597 -2.47063 -2.51798 0.00685973 13.6849 -8.99778 4.1707 -8.93787 -0.133185 0.0462048 0.000530888 0.662642 
19.0207 101.349 -0.145445 -7.41312 1.31102 -84.1023 2.84729 10.8594 5.00794 1.65163 11.9309 14.6002 -7.4151 -18.772 -0.638741 -1.28123e-009 8.75252e-006 -1.47156e-008 4.16231 6.91167 -0.177637 -0.808315 5.04569 0.351948 36.2419 1.78531 0.194042 43.4747 -20.87 13.8222 8.74352 33.369 7.8566 -5.24925 9.82697 -3.81987 -44.5419 3.51498 -3.35504 -29.0724 -20.8145 -5.35667 -9.2936 44.079 -6.7451 5.82328 9.61819 -0.917488 -3.68804 -14.3984 -7.59329 1.25188 -2.22499 -2.32663 -0.0680474 13.2556 -8.53529 4.10213 -8.68406 -0.141474 0.0462048 0.000530888 0.662642 
18.9655 101.374 -0.106891 -7.54634 1.50071 -84.8722 2.83293 11.3722 5.18215 1.63233 11.4702 15.2265 -7.44724 -18.6549 -0.634579 -1.28123e-009 8.75252e-006 -1.47156e-008 4.00882 6.58932 -0.131466 -0.66506 5.36077 0.343485 36.3467 1.78532 0.187725 43.7696 -20.7853 13.6838 8.6274 33.3177 8.05158 -4.68911 9.83529 -3.83514 -44.5184 3.51088 -3.35193 -28.7214 -21.8404 -4.76915 -10.0429 44.9899 -5.4927 5.82328 9.61819 -0.917488 -3.15277 -13.7298 -6.29988 1.46102 -1.92049 -2.16905 -0.127363 12.8368 -7.95663 4.02102 -8.45594 -0.148805 0.0462048 0.000530888 0.662642 
18.915 101.387 -0.0640962 -7.71818 1.70345 -85.6902 2.82575 11.8808 5.3525 1.59255 11.1174 15.9192 -7.44587 -18.5857 -0.629165 -1.28123e-009 8.75252e-006 -1.47156e-008 3.99418 6.38118 -0.140032 -0.663073 5.59221 0.324676 36.5829 1.78525 0.170448 43.8543 -20.5744 13.4663 8.52883 33.2869 8.25209 -4.45173 9.82943 -3.54004 -44.3668 3.49929 -3.35417 -28.5429 -22.495 -3.95797 -10.3464 45.4608 -4.89152 5.82328 9.61819 -0.917488 -2.5866 -12.949 -5.12297 1.67884 -1.61068 -2.01029 -0.203818 12.489 -7.30351 3.98969 -8.26487 -0.15457 0.0462048 0.000530888 0.662642 
18.884 101.379 -0.031288 -7.89741 1.93832 -86.443 2.9152 12.2384 5.56974 1.49413 11.0482 16.4875 -7.38672 -18.6417 -0.62796 -1.28123e-009 8.75252e-006 -1.47156e-008 4.01397 6.33389 -0.213723 -0.568105 5.67747 0.22482 36.7746 1.78526 0.156182 43.8304 -20.2352 13.1411 8.44646 33.0794 8.48563 -4.72578 9.81611 -3.25737 -44.3321 3.50345 -3.36741 -28.2973 -22.57 -3.0277 -10.3328 45.601 -4.85911 5.82328 9.61819 -0.917488 -2.14645 -12.1358 -4.06353 1.94191 -1.34942 -1.80606 -0.297955 12.2464 -6.72862 4.00668 -8.11661 -0.158238 0.0462048 0.000530888 0.662642 
18.8545 101.358 -0.0116172 -8.09148 2.20468 -87.0819 3.08071 12.4915 5.79268 1.40827 11.1926 16.9053 -7.36986 -18.7838 -0.634965 -1.28123e-009 8.75252e-006 -1.47156e-008 3.97914 6.31465 -0.304026 -0.279891 5.80856 0.0613872 36.8023 1.78552 0.153436 43.7702 -19.9294 12.7606 8.37627 32.8941 8.67757 -4.98327 9.80936 -3.19719 -44.4924 3.52564 -3.38705 -27.9837 -22.2654 -2.28828 -10.2695 45.5526 -5.00704 5.82328 9.61819 -0.917488 -1.82097 -11.4274 -3.04026 2.25407 -1.0878 -1.56909 -0.391596 12.0576 -6.30682 4.02496 -8.00292 -0.160284 0.0462048 0.000530888 0.662642 
18.8036 101.336 0.0129943 -8.32506 2.47032 -87.657 3.21854 12.7977 5.96223 1.39513 11.3307 17.3081 -7.41539 -18.9139 -0.647502 -1.28123e-009 8.75252e-006 -1.47156e-008 4.01463 6.20328 -0.369238 -0.0922811 6.15074 -0.0530931 36.8164 1.7862 0.150379 43.6159 -19.8652 12.3885 8.37989 32.9603 8.66396 -4.85402 9.81638 -3.33756 -44.6043 3.53817 -3.39492 -27.8814 -22.0479 -1.95225 -10.2939 45.4365 -5.03134 5.82328 9.61819 -0.917488 -1.35714 -11.0119 -2.01013 2.56564 -0.771648 -1.35144 -0.48021 11.8965 -5.95657 4.01347 -7.93173 -0.162138 0.0462048 0.000530888 0.662642 
18.7404 101.313 0.0505089 -8.5691 2.69028 -88.2123 3.27975 13.1696 6.09268 1.40408 11.3791 17.7508 -7.45462 -19.01 -0.657404 -1.28123e-009 8.75252e-006 -1.47156e-008 4.23328 6.07757 -0.410709 -0.243932 6.55778 -0.0568089 36.9555 1.78747 0.139245 43.3644 -20.1655 11.9988 8.49574 33.2877 8.37552 -4.56266 9.82888 -3.57571 -44.5202 3.52768 -3.3869 -28.0786 -21.9933 -1.93678 -10.3339 45.2478 -5.00746 5.82328 9.61819 -0.917488 -0.535037 -11.0248 -1.02829 2.81428 -0.469872 -1.18319 -0.571056 11.8246 -5.5774 3.98677 -7.92263 -0.163814 0.0462048 0.000530888 0.662642 
